<svg width="22" height="26" viewBox="0 0 22 26" fill="none" xmlns="http://www.w3.org/2000/svg"><mask id="path-1-outside-1_5840_165577" maskUnits="userSpaceOnUse" x="0.5" y="0.716797" width="21" height="25" fill="black"><rect fill="white" x="0.5" y="0.716797" width="21" height="25"/><path fill-rule="evenodd" clip-rule="evenodd" d="M5.97833 11.4487C5.97587 11.418 5.97461 11.387 5.97461 11.3557V8.52393C5.97461 5.86902 8.22575 3.7168 11.0027 3.7168C13.2573 3.7168 15.1653 5.13555 15.8033 7.0902C16.0117 7.72859 15.4633 8.30013 14.7918 8.30013C14.1877 8.30013 13.7024 7.81725 13.3895 7.30061C12.9369 6.55341 12.0773 6.00846 11.0027 6.00846C9.39327 6.00846 8.26628 7.23063 8.26628 8.52393V11.3557C8.26628 11.387 8.26502 11.418 8.26255 11.4487H16.225C17.4814 11.4487 18.5 12.4673 18.5 13.7237V20.0071C18.5 21.2635 17.4814 22.2821 16.225 22.2821H5.775C4.51855 22.2821 3.5 21.2635 3.5 20.0071V13.7237C3.5 12.4673 4.51855 11.4487 5.775 11.4487H5.97833ZM11.8837 17.5351C12.516 17.1977 12.9488 16.5111 12.9488 15.7191C12.9488 14.5933 12.0744 13.6807 10.9959 13.6807C9.91731 13.6807 9.04297 14.5933 9.04297 15.7191C9.04297 16.5113 9.47594 17.1979 10.1084 17.5353V19.0935C10.1084 19.5838 10.5058 19.9812 10.996 19.9812C11.4863 19.9812 11.8837 19.5838 11.8837 19.0935V17.5351Z"/></mask><path fill-rule="evenodd" clip-rule="evenodd" d="M5.97833 11.4487C5.97587 11.418 5.97461 11.387 5.97461 11.3557V8.52393C5.97461 5.86902 8.22575 3.7168 11.0027 3.7168C13.2573 3.7168 15.1653 5.13555 15.8033 7.0902C16.0117 7.72859 15.4633 8.30013 14.7918 8.30013C14.1877 8.30013 13.7024 7.81725 13.3895 7.30061C12.9369 6.55341 12.0773 6.00846 11.0027 6.00846C9.39327 6.00846 8.26628 7.23063 8.26628 8.52393V11.3557C8.26628 11.387 8.26502 11.418 8.26255 11.4487H16.225C17.4814 11.4487 18.5 12.4673 18.5 13.7237V20.0071C18.5 21.2635 17.4814 22.2821 16.225 22.2821H5.775C4.51855 22.2821 3.5 21.2635 3.5 20.0071V13.7237C3.5 12.4673 4.51855 11.4487 5.775 11.4487H5.97833ZM11.8837 17.5351C12.516 17.1977 12.9488 16.5111 12.9488 15.7191C12.9488 14.5933 12.0744 13.6807 10.9959 13.6807C9.91731 13.6807 9.04297 14.5933 9.04297 15.7191C9.04297 16.5113 9.47594 17.1979 10.1084 17.5353V19.0935C10.1084 19.5838 10.5058 19.9812 10.996 19.9812C11.4863 19.9812 11.8837 19.5838 11.8837 19.0935V17.5351Z" fill="url(#paint0_linear_5840_165577)"/><path d="M5.97833 11.4487V14.1987C6.74596 14.1987 7.47865 13.8779 7.99926 13.3138C8.51986 12.7497 8.78098 11.9936 8.7195 11.2285L5.97833 11.4487ZM15.8033 7.0902L13.189 7.94348L13.189 7.94349L15.8033 7.0902ZM13.3895 7.30061L11.0373 8.72527L11.0373 8.72527L13.3895 7.30061ZM8.26255 11.4487L5.52139 11.2285C5.4599 11.9936 5.72103 12.7497 6.24163 13.3138C6.76223 13.8779 7.49492 14.1987 8.26255 14.1987V11.4487ZM11.8837 17.5351L10.5889 15.109C9.69316 15.5871 9.13372 16.5198 9.13372 17.5351H11.8837ZM10.1084 17.5353H12.8584C12.8584 16.5198 12.2987 15.5869 11.4027 15.109L10.1084 17.5353ZM3.22461 11.3557C3.22461 11.4606 3.22882 11.5651 3.23717 11.669L8.7195 11.2285C8.72291 11.271 8.72461 11.3134 8.72461 11.3557H3.22461ZM3.22461 8.52393V11.3557H8.72461V8.52393H3.22461ZM11.0027 0.966797C6.82472 0.966797 3.22461 4.2351 3.22461 8.52393H8.72461C8.72461 7.50295 9.62677 6.4668 11.0027 6.4668V0.966797ZM18.4176 6.23692C17.4 3.11939 14.4137 0.966797 11.0027 0.966797V6.4668C12.1008 6.4668 12.9306 7.15172 13.189 7.94348L18.4176 6.23692ZM14.7918 11.0501C15.8938 11.0501 16.9622 10.5848 17.6964 9.74617C18.4689 8.86395 18.8507 7.56401 18.4176 6.23692L13.189 7.94349C12.9642 7.25479 13.176 6.5598 13.5585 6.12295C13.9029 5.72972 14.3612 5.55013 14.7918 5.55013V11.0501ZM11.0373 8.72527C11.4721 9.44315 12.6729 11.0501 14.7918 11.0501V5.55013C15.2607 5.55013 15.5694 5.74453 15.6799 5.83131C15.7771 5.90765 15.7818 5.94225 15.7417 5.87594L11.0373 8.72527ZM11.0027 8.75846C11.0378 8.75846 11.0579 8.76276 11.0662 8.76494C11.075 8.76723 11.0772 8.76892 11.075 8.7677C11.0723 8.76618 11.0561 8.75633 11.0373 8.72527L15.7417 5.87594C14.7948 4.31268 13.047 3.25846 11.0027 3.25846V8.75846ZM11.0163 8.52393C11.0163 8.67942 10.9532 8.74779 10.9431 8.75765C10.9334 8.76701 10.9278 8.76879 10.9307 8.76763C10.9314 8.76734 10.9521 8.75846 11.0027 8.75846V3.25846C7.96097 3.25846 5.51628 5.62678 5.51628 8.52393H11.0163ZM11.0163 11.3557V8.52393H5.51628V11.3557H11.0163ZM11.0037 11.669C11.0121 11.5651 11.0163 11.4606 11.0163 11.3557H5.51628C5.51628 11.3134 5.51797 11.271 5.52139 11.2285L11.0037 11.669ZM16.225 8.69873H8.26255V14.1987H16.225V8.69873ZM21.25 13.7237C21.25 10.9485 19.0002 8.69873 16.225 8.69873V14.1987C15.9627 14.1987 15.75 13.9861 15.75 13.7237H21.25ZM21.25 20.0071V13.7237H15.75V20.0071H21.25ZM16.225 25.0321C19.0002 25.0321 21.25 22.7823 21.25 20.0071H15.75C15.75 19.7447 15.9627 19.5321 16.225 19.5321V25.0321ZM5.775 25.0321H16.225V19.5321H5.775V25.0321ZM0.75 20.0071C0.75 22.7823 2.99977 25.0321 5.775 25.0321V19.5321C6.03733 19.5321 6.25 19.7447 6.25 20.0071H0.75ZM0.75 13.7237V20.0071H6.25V13.7237H0.75ZM5.775 8.69873C2.99977 8.69873 0.75 10.9485 0.75 13.7237H6.25C6.25 13.9861 6.03733 14.1987 5.775 14.1987V8.69873ZM5.97833 8.69873H5.775V14.1987H5.97833V8.69873ZM10.1988 15.7191C10.1988 15.4999 10.3218 15.2516 10.5889 15.109L13.1785 19.9612C14.7101 19.1438 15.6988 17.5224 15.6988 15.7191H10.1988ZM10.9959 16.4307C10.4458 16.4307 10.1988 15.9998 10.1988 15.7191H15.6988C15.6988 13.1868 13.7031 10.9307 10.9959 10.9307V16.4307ZM11.793 15.7191C11.793 15.9998 11.546 16.4307 10.9959 16.4307V10.9307C8.28865 10.9307 6.29297 13.1868 6.29297 15.7191H11.793ZM11.4027 15.109C11.6699 15.2515 11.793 15.4998 11.793 15.7191H6.29297C6.29297 17.5227 7.28202 19.1444 8.81402 19.9617L11.4027 15.109ZM12.8584 19.0935V17.5353H7.35836V19.0935H12.8584ZM10.996 17.2312C12.0246 17.2312 12.8584 18.065 12.8584 19.0935H7.35836C7.35836 21.1026 8.987 22.7312 10.996 22.7312V17.2312ZM9.13372 19.0935C9.13372 18.065 9.96751 17.2312 10.996 17.2312V22.7312C13.0051 22.7312 14.6337 21.1026 14.6337 19.0935H9.13372ZM9.13372 17.5351V19.0935H14.6337V17.5351H9.13372Z" fill="white" mask="url(#path-1-outside-1_5840_165577)"/><defs><linearGradient id="paint0_linear_5840_165577" x1="4" y1="5.5" x2="7.74894" y2="24.0696" gradientUnits="userSpaceOnUse"><stop stop-color="#26FF55"/><stop offset="0.571517" stop-color="#268AFF"/><stop offset="1" stop-color="#FC55FF"/></linearGradient></defs></svg>