<svg width="22" height="19" viewBox="0 0 22 19" fill="none" xmlns="http://www.w3.org/2000/svg"><path d="M15.2957 2.57402L16.3097 3.50266L15.2957 2.57402L8.55998 9.9291L6.78197 7.82356C5.7403 6.59 3.89586 6.43445 2.66231 7.47612C1.42875 8.51779 1.27319 10.3622 2.31486 11.5958L5.48018 15.3442C7.01907 17.1665 9.8087 17.2226 11.4196 15.4636L19.6075 6.52277C20.6979 5.33208 20.6167 3.48288 19.426 2.39247C18.2353 1.30205 16.3861 1.38333 15.2957 2.57402Z" fill="#26F663"/><path d="M15.2957 2.57402L16.3097 3.50266L15.2957 2.57402L8.55998 9.9291L6.78197 7.82356C5.7403 6.59 3.89586 6.43445 2.66231 7.47612C1.42875 8.51779 1.27319 10.3622 2.31486 11.5958L5.48018 15.3442C7.01907 17.1665 9.8087 17.2226 11.4196 15.4636L19.6075 6.52277C20.6979 5.33208 20.6167 3.48288 19.426 2.39247C18.2353 1.30205 16.3861 1.38333 15.2957 2.57402Z" fill="url(#paint0_linear_5837_172567)"/><path d="M15.2957 2.57402L16.3097 3.50266L15.2957 2.57402L8.55998 9.9291L6.78197 7.82356C5.7403 6.59 3.89586 6.43445 2.66231 7.47612C1.42875 8.51779 1.27319 10.3622 2.31486 11.5958L5.48018 15.3442C7.01907 17.1665 9.8087 17.2226 11.4196 15.4636L19.6075 6.52277C20.6979 5.33208 20.6167 3.48288 19.426 2.39247C18.2353 1.30205 16.3861 1.38333 15.2957 2.57402Z" stroke="white" stroke-width="2.75" stroke-linecap="round"/><defs><linearGradient id="paint0_linear_5837_172567" x1="7.5" y1="6.5" x2="11.137" y2="14.3299" gradientUnits="userSpaceOnUse"><stop stop-color="#26FF55"/><stop offset="0.571517" stop-color="#268AFF"/><stop offset="1" stop-color="#FC55FF"/></linearGradient></defs></svg>